<?xml version='1.0' encoding='utf-8'?>
<svg xmlns="http://www.w3.org/2000/svg" enable-background="new 0 0 48 48" version="1.1" viewBox="0 0 48 48"> <path d="m37.24 6.472c-5e-3 -0.041-0.012-0.079-0.024-0.118-0.013-0.042-0.03-0.079-0.052-0.116-0.01-0.019-0.013-0.04-0.025-0.057-0.01-0.014-0.024-0.021-0.035-0.033-0.027-0.033-0.059-0.06-0.092-0.086-0.031-0.024-0.061-0.046-0.095-0.064-0.033-0.017-0.067-0.028-0.104-0.039-3e-3 -1e-3 -6e-3 -3e-3 -9e-3 -4e-3 -0.144-0.087-0.319-0.12-0.496-0.067-4.428 1.352-6.367 0.773-7.215 0.048-1.002-0.858-0.823-2.195-0.815-2.251 0.05-0.333-0.179-0.644-0.512-0.695-0.119-0.019-0.229 8e-3 -0.331 0.052-0.192-0.082-0.418-0.074-0.598 0.059l-11.797 8.629c-1.624 1.135-3.527 2.67-3.835 4.487-0.035 0.208-0.047 0.414-0.038 0.617v25.222c0 3.562 3.667 3.562 5.048 3.562 0.897 0 2.758-7e-3 3.95-0.99 3e-3 -2e-3 7e-3 -3e-3 0.01-5e-3l16.825-12.184c0.159-0.115 0.253-0.3 0.253-0.496v-25.406c0-0.023-0.011-0.042-0.013-0.065zm-24.828 9.95c0.235-1.384 2.012-2.768 3.34-3.695l11.319-8.279c0.076 0.702 0.346 1.657 1.211 2.406 0.826 0.715 1.999 1.073 3.509 1.073 0.647 0 1.361-0.07 2.132-0.202l-13.625 9.725c-3.484 2.357-6.558 1.593-7.525 0.352-0.324-0.448-0.442-0.9-0.361-1.38zm-0.02 25.635v-22.925c0.836 0.675 2.018 1.075 3.388 1.075 1.299 0 2.764-0.362 4.25-1.169v23.02c0 1.402-0.648 2.337-3.814 2.337-3.174-1e-3 -3.824-0.936-3.824-2.338zm8.843 0.287c6e-3 -0.096 0.019-0.186 0.019-0.287v-23.561c0-0.069-0.018-0.133-0.04-0.196l14.814-10.573v23.904l-14.793 10.713z" fill="#F0F7FF"/> </svg>