<?xml version='1.0' encoding='utf-8'?>
<svg xmlns="http://www.w3.org/2000/svg" enable-background="new 0 0 48 48" version="1.1" viewBox="0 0 48 48"> <path d="m41.695 12.18c-4e-3 -0.034-0.01-0.067-0.021-0.101-0.011-0.032-0.024-0.062-0.041-0.09-9e-3 -0.016-0.011-0.034-0.021-0.049-8e-3 -0.012-0.021-0.017-0.03-0.028-0.021-0.026-0.047-0.048-0.074-0.069-0.024-0.02-0.049-0.038-0.076-0.052-0.028-0.015-0.057-0.023-0.087-0.032-2e-3 -1e-3 -4e-3 -1e-3 -5e-3 -2e-3 -0.118-0.073-0.263-0.101-0.406-0.055-2.696 0.824-4.667 0.799-5.696-0.073-1.027-0.87-0.844-2.368-0.842-2.383 1e-3 -4e-3 -1e-3 -7e-3 -1e-3 -0.011 4e-3 -0.036-3e-3 -0.072-7e-3 -0.109-4e-3 -0.029-2e-3 -0.06-0.01-0.088-2e-3 -4e-3 -1e-3 -9e-3 -2e-3 -0.013-0.01-0.03-0.029-0.052-0.044-0.078-0.014-0.027-0.024-0.055-0.044-0.079-0.023-0.03-0.054-0.051-0.083-0.074-0.021-0.017-0.039-0.036-0.063-0.05-0.035-0.02-0.073-0.029-0.112-0.039-0.021-6e-3 -0.039-0.019-0.062-0.021-4e-3 0-7e-3 1e-3 -0.01 0-0.038-4e-3 -0.077 3e-3 -0.116 8e-3 -0.027 3e-3 -0.057 1e-3 -0.083 9e-3 -4e-3 1e-3 -8e-3 0-0.012 1e-3 -2.351 0.759-4.078 0.763-4.996 0.011-0.934-0.764-0.789-2.128-0.788-2.142 3e-3 -0.023-5e-3 -0.044-5e-3 -0.067-1e-3 -0.04 0-0.08-0.01-0.119-9e-3 -0.035-0.027-0.064-0.044-0.095-0.012-0.024-0.017-0.051-0.033-0.073-2e-3 -3e-3 -5e-3 -4e-3 -8e-3 -7e-3 -0.025-0.034-0.06-0.059-0.094-0.085-0.018-0.014-0.031-0.032-0.05-0.043-0.023-0.014-0.052-0.018-0.077-0.028-0.035-0.014-0.07-0.03-0.107-0.036-3e-3 0-5e-3 -2e-3 -8e-3 -2e-3 -0.023-3e-3 -0.046 5e-3 -0.069 5e-3h-0.015c-0.069-0.011-0.141-0.011-0.214 9e-3 -3.646 1.002-5.261 0.489-5.975-0.117-0.795-0.675-0.706-1.651-0.701-1.7 3e-3 -0.024-5e-3 -0.046-6e-3 -0.069-1e-3 -0.037 0-0.073-9e-3 -0.11-9e-3 -0.035-0.026-0.064-0.042-0.096-0.011-0.022-0.015-0.047-0.03-0.068-3e-3 -4e-3 -8e-3 -6e-3 -0.011-0.01-0.023-0.03-0.053-0.053-0.082-0.078-0.021-0.017-0.038-0.039-0.061-0.052-0.026-0.016-0.056-0.022-0.085-0.033-0.033-0.012-0.063-0.027-0.098-0.032-5e-3 0-9e-3 -4e-3 -0.014-4e-3 -0.028-3e-3 -0.053 5e-3 -0.08 6e-3 -0.033 1e-3 -0.066 0-0.099 8e-3 -0.042 0.01-0.078 0.03-0.115 0.05-0.017 9e-3 -0.036 0.011-0.052 0.022l-0.021 0.015c-1e-3 1e-3 -2e-3 1e-3 -3e-3 2e-3l-11.01 7.711c-1.204 0.842-2.692 2.165-2.948 3.686-0.056 0.333-0.044 0.656 0.024 0.971-0.037 0.069-0.063 0.145-0.063 0.229v20.039c0 2.908 2.996 2.908 4.123 2.908 1.02 0 2.18-0.102 3.014-0.657v0.298c0 2.906 2.996 2.906 4.123 2.906 1.044 0 2.453-0.31 3.395-0.801v0.186c0 2.908 2.994 2.908 4.121 2.908 0.733 0 2.253-6e-3 3.226-0.809 4e-3 -2e-3 8e-3 -1e-3 0.011-3e-3l13.738-9.951c0.13-0.095 0.207-0.245 0.207-0.405v-20.75c-1e-3 -0.018-0.01-0.033-0.011-0.05zm-7.113 0.204c0.718 0.613 1.707 0.919 2.958 0.919 0.458 0 0.958-0.049 1.485-0.131l-11.167 7.97c-2.847 1.926-5.356 1.302-6.145 0.287-0.265-0.366-0.361-0.733-0.295-1.125 0.19-1.129 1.642-2.26 2.726-3.019l9.337-6.83c0.133 0.628 0.429 1.355 1.101 1.929zm-6.475-2.905c0.643 0.53 1.508 0.796 2.589 0.796 0.476 0 0.993-0.052 1.553-0.155l-8.686 6.354c-0.503 0.352-1.038 0.751-1.523 1.192-0.072 0.014-0.143 0.039-0.206 0.085l-1.491 1.102c-2.848 1.924-5.356 1.301-6.145 0.287-0.263-0.364-0.359-0.728-0.294-1.113 0.208-1.229 2.039-2.507 2.736-2.995l10.372-7.568c0.101 0.626 0.375 1.418 1.095 2.015zm-21.335 5.848c0.209-1.242 1.679-2.433 2.536-3.033l10.328-7.233c0.114 0.497 0.373 1.099 0.955 1.6 0.723 0.623 1.76 0.934 3.1 0.934 0.499 0 1.044-0.048 1.626-0.134l-9.258 6.756c-0.489 0.342-0.983 0.711-1.435 1.106-0.063 0.015-0.123 0.042-0.178 0.083l-1.214 0.896c-2.846 1.925-5.356 1.301-6.145 0.287-0.287-0.399-0.39-0.811-0.315-1.262zm6.051 21.939c-0.332 0.722-1.243 1.043-2.952 1.043-2.592 0-3.123-0.763-3.123-1.908v-18.765c0.684 0.571 1.652 0.917 2.793 0.917 1.054 0 2.242-0.306 3.45-0.957-0.024 0.087-0.058 0.173-0.073 0.262-0.039 0.231-0.032 0.458-4e-3 0.682-0.015 0.047-0.03 0.095-0.03 0.147v18.493c-0.02 0.029-0.046 0.052-0.061 0.086zm7.562 2.609c-0.515 0.504-2.156 0.98-3.377 0.98-2.592 0-3.123-0.762-3.123-1.906v-18.738c0.682 0.556 1.641 0.891 2.765 0.891 1.169 0 2.503-0.376 3.846-1.187-0.019 0.075-0.049 0.147-0.062 0.224-0.029 0.17-0.038 0.338-0.031 0.504v19.221c-6e-3 4e-3 -0.013 6e-3 -0.018 0.011zm1.017 1.365v-18.736c0.683 0.556 1.642 0.89 2.766 0.89 1.061 0 2.257-0.311 3.471-0.971v18.817c0 1.146-0.529 1.908-3.115 1.908-2.591 0-3.122-0.762-3.122-1.908zm7.221 0.237c5e-3 -0.079 0.016-0.152 0.016-0.236v-19.243c0-0.057-0.015-0.11-0.032-0.161l12.099-8.636v19.524l-12.083 8.752z" fill="#F0F7FF"/> </svg>