<?xml version='1.0' encoding='utf-8'?>
<svg xmlns="http://www.w3.org/2000/svg" viewBox="0 0 332.97 349"> <g transform="matrix(1 0 0 .95316 -166.41 -257.12)" fill="none" stroke="#F0F7FF"> <path d="m181.7 369.54c33.012 25.438 63.913 53.769 89.594 85.83 14.177 17.699 24.504 37.855 35.683 57.313 6.1944 10.781 12.359 29.989 22.961 28.7 55.47-24.056 122.68-72.335 165.76-112.96 4.4201-4.6071-3.7438-8.9981-8.1307-11.927-13.694-9.1433-29.373-15.638-42.688-25.522-13.51-10.029-28.552-18.596-40.659-30.054-19.63-18.579-41.473-45.906-51.882-61.505s-6.9587-27.952-18.023-27.088c-25.888 2.0203-52.914 17.854-78.05 29.77-26.88 12.743-54.083 25.387-78.147 42.471-3.4436 2.4448-10.894 6.8795-7.2396 11.227 3.7591 4.4722 6.1479 10.152 10.816 13.749z" stroke-width="4.9346"/> <path d="m170.01 356.53c-0.92816 33.038-2.2686 67.039 0.477 98.195 0.46039 5.2244 5.1933 8.4702 9.2848 10.635 9.3643 4.9548 18.751 9.6352 26.532 16.832 12.606 11.659 25.35 23.637 35.191 37.386 14.304 19.983 25.961 41.639 37.325 63.206 7.2917 13.839 12.601 29.52 24.101 40.543 5.4014 5.1777 12.79 7.6481 20.471 9.4054 6.5241 1.4926 13.537 0.08337 18.988-2.7883 40.577-21.379 79.817-45.806 119.73-68.71-0.48683-6.6181-4.1738-14.767-1.4605-19.854 2.6418-4.9535 12.157-12.546 15.202-11.238 2.7971 1.202 2.3236 12.835 2.3236 18.769l18.256-14.377v-106.12" stroke-width="5"/> <path d="m327.02 542.19 0.72757 90.168" stroke-width="4.985"/> <path transform="matrix(.69357 -.66092 .69391 .6178 -274.44 480.87)" d="m436.43 553.79a36.786 31.429 0 1 1-73.571 0 36.786 31.429 0 1 1 73.571 0z" stroke-width="5.3086"/> <path d="m224.78 392.82s55.385-32.092 70.103-39.024 18.091-8.1519 26.289-10.269c1.498-0.38695 5.1117-0.68464 5.1117-0.68464l51.117 37.655 43.084 35.601 33.956 30.808" stroke-width="4.9346"/> <path d="m270.79 368.17c36.807 39.252 81.252 80.901 127.79 120.15" stroke-width="3"/> <path d="m252.24 380.09c36.079 39.841 78.701 81.825 124.51 121.82" stroke-width="3"/> <path transform="matrix(1.006 -.19052 .16772 .89768 -83.325 117.32)" d="m399.29 399.86a25.714 15.357 0 1 1-51.429 0 25.714 15.357 0 1 1 51.429 0z" stroke-width="3.1024"/> <path d="m333.55 409.54 1.913 11.459c1.2742 7.6328 14.165 11.591 28.445 8.8867s24.716-11.075 23.294-18.685l-1.9143-11.343" stroke-width="3"/> <path d="m370.27 401.06-21.945 6.7775" stroke-width="3"/> <path d="m356.05 397.21 6.4545 15.007" stroke-width="3"/> <path d="m201.6 370.93c28.483 22.951 55.005 48.44 76.928 77.063 12.187 15.911 25.15 33.988 34.749 51.458 5.3187 9.6799 11.301 29.135 19.694 25.768 48.337-19.39 107.44-61.131 144.44-97.611 3.7952-4.1365-5.4151-5.2698-13.178-10.689s-40.643-27.635-52.143-36.431c-30.531-23.352-45.295-43.186-66.032-74.461-5.278-7.96-8.0403-21.224-17.541-20.448-40.817 11.855-96.765 35.529-132.05 58.084-2.9568 2.195-14.517 8.1132-11.38 12.017 3.2276 4.0153 12.497 12.011 16.516 15.25z" stroke-width="4"/> <path d="m325.19 342.66 4.9901-56.991" stroke-width="3"/> <path d="m476.34 552.8-17.1-8.4572" stroke-width="3"/> </g> </svg>